<svg width="1170" height="552" viewBox="0 0 1170 552" fill="none" xmlns="http://www.w3.org/2000/svg">
<rect width="1170" height="552.002" rx="50" fill="#242424"/>
<path d="M181.051 314.897V281.443H185.102V296.341H202.94V281.443H206.991V314.897H202.94V299.934H185.102V314.897H181.051ZM224.772 315.42C222.507 315.42 220.52 314.881 218.81 313.803C217.111 312.725 215.783 311.217 214.824 309.278C213.877 307.34 213.403 305.075 213.403 302.483C213.403 299.869 213.877 297.588 214.824 295.638C215.783 293.689 217.111 292.175 218.81 291.097C220.52 290.019 222.507 289.48 224.772 289.48C227.038 289.48 229.02 290.019 230.718 291.097C232.428 292.175 233.757 293.689 234.704 295.638C235.663 297.588 236.142 299.869 236.142 302.483C236.142 305.075 235.663 307.34 234.704 309.278C233.757 311.217 232.428 312.725 230.718 313.803C229.02 314.881 227.038 315.42 224.772 315.42ZM224.772 311.957C226.493 311.957 227.909 311.516 229.02 310.634C230.13 309.752 230.953 308.592 231.486 307.155C232.02 305.717 232.287 304.16 232.287 302.483C232.287 300.806 232.02 299.243 231.486 297.794C230.953 296.346 230.13 295.175 229.02 294.282C227.909 293.389 226.493 292.943 224.772 292.943C223.052 292.943 221.636 293.389 220.525 294.282C219.414 295.175 218.592 296.346 218.059 297.794C217.525 299.243 217.258 300.806 217.258 302.483C217.258 304.16 217.525 305.717 218.059 307.155C218.592 308.592 219.414 309.752 220.525 310.634C221.636 311.516 223.052 311.957 224.772 311.957ZM246.858 314.897L239.213 289.807H243.264L248.687 309.017H248.949L254.306 289.807H258.423L263.716 308.951H263.977L269.4 289.807H273.451L265.806 314.897H262.017L256.528 295.622H256.136L250.647 314.897H246.858ZM291.485 314.897V289.807H295.21V293.727H295.537C296.059 292.388 296.903 291.348 298.069 290.607C299.234 289.856 300.633 289.48 302.267 289.48C303.922 289.48 305.3 289.856 306.4 290.607C307.51 291.348 308.376 292.388 308.997 293.727H309.258C309.901 292.431 310.864 291.402 312.15 290.64C313.435 289.866 314.975 289.48 316.772 289.48C319.016 289.48 320.851 290.182 322.277 291.587C323.704 292.981 324.417 295.154 324.417 298.105V314.897H320.562V298.105C320.562 296.254 320.056 294.93 319.043 294.135C318.03 293.34 316.838 292.943 315.466 292.943C313.701 292.943 312.335 293.477 311.365 294.544C310.396 295.6 309.912 296.94 309.912 298.562V314.897H305.991V297.713C305.991 296.286 305.528 295.137 304.603 294.266C303.677 293.384 302.484 292.943 301.025 292.943C300.023 292.943 299.087 293.21 298.216 293.743C297.355 294.277 296.658 295.017 296.125 295.965C295.602 296.901 295.341 297.985 295.341 299.216V314.897H291.485ZM347.278 304.639V289.807H351.134V314.897H347.278V310.65H347.017C346.429 311.924 345.514 313.008 344.273 313.901C343.031 314.783 341.463 315.224 339.568 315.224C338 315.224 336.606 314.881 335.386 314.195C334.167 313.498 333.208 312.453 332.511 311.059C331.814 309.654 331.466 307.884 331.466 305.75V289.807H335.321V305.488C335.321 307.318 335.833 308.777 336.857 309.866C337.891 310.955 339.209 311.5 340.81 311.5C341.768 311.5 342.743 311.255 343.734 310.765C344.736 310.275 345.574 309.523 346.249 308.51C346.935 307.498 347.278 306.207 347.278 304.639ZM368.388 315.42C366.035 315.42 364.01 314.865 362.311 313.754C360.612 312.643 359.305 311.113 358.39 309.164C357.476 307.214 357.018 304.987 357.018 302.483C357.018 299.934 357.487 297.686 358.423 295.736C359.371 293.776 360.688 292.246 362.376 291.146C364.075 290.035 366.057 289.48 368.322 289.48C370.086 289.48 371.676 289.807 373.092 290.46C374.508 291.113 375.668 292.028 376.572 293.204C377.475 294.38 378.036 295.753 378.254 297.321H374.399C374.105 296.177 373.452 295.165 372.439 294.282C371.437 293.389 370.086 292.943 368.388 292.943C366.885 292.943 365.567 293.335 364.434 294.119C363.313 294.892 362.436 295.987 361.805 297.402C361.184 298.807 360.873 300.457 360.873 302.352C360.873 304.29 361.178 305.978 361.788 307.416C362.409 308.853 363.28 309.97 364.402 310.765C365.534 311.56 366.863 311.957 368.388 311.957C369.39 311.957 370.299 311.783 371.116 311.434C371.932 311.086 372.624 310.585 373.19 309.932C373.756 309.278 374.159 308.494 374.399 307.579H378.254C378.036 309.06 377.497 310.394 376.637 311.581C375.787 312.758 374.66 313.694 373.256 314.391C371.862 315.077 370.239 315.42 368.388 315.42ZM387.745 299.804V314.897H383.89V281.443H387.745V293.727H388.072C388.66 292.431 389.542 291.402 390.718 290.64C391.905 289.866 393.484 289.48 395.455 289.48C397.165 289.48 398.662 289.823 399.947 290.509C401.232 291.184 402.229 292.224 402.937 293.629C403.655 295.023 404.015 296.798 404.015 298.954V314.897H400.16V299.216C400.16 297.223 399.642 295.682 398.608 294.593C397.584 293.493 396.163 292.943 394.344 292.943C393.081 292.943 391.948 293.21 390.947 293.743C389.956 294.277 389.171 295.056 388.594 296.079C388.028 297.103 387.745 298.344 387.745 299.804ZM434.917 289.807V293.074H421.914V289.807H434.917ZM425.704 283.795H429.559V307.71C429.559 308.799 429.717 309.616 430.033 310.16C430.359 310.694 430.773 311.053 431.274 311.238C431.786 311.413 432.325 311.5 432.891 311.5C433.316 311.5 433.665 311.478 433.937 311.434C434.209 311.38 434.427 311.336 434.59 311.304L435.374 314.767C435.113 314.865 434.748 314.963 434.28 315.061C433.812 315.17 433.218 315.224 432.499 315.224C431.41 315.224 430.343 314.99 429.298 314.522C428.263 314.053 427.403 313.34 426.717 312.382C426.041 311.424 425.704 310.215 425.704 308.755V283.795ZM440.716 314.897V289.807H444.571V314.897H440.716ZM442.676 285.625C441.925 285.625 441.277 285.369 440.732 284.857C440.199 284.345 439.932 283.73 439.932 283.011C439.932 282.292 440.199 281.677 440.732 281.165C441.277 280.653 441.925 280.397 442.676 280.397C443.428 280.397 444.07 280.653 444.604 281.165C445.148 281.677 445.42 282.292 445.42 283.011C445.42 283.73 445.148 284.345 444.604 284.857C444.07 285.369 443.428 285.625 442.676 285.625ZM451.632 314.897V289.807H455.356V293.727H455.683C456.206 292.388 457.05 291.348 458.215 290.607C459.38 289.856 460.78 289.48 462.413 289.48C464.068 289.48 465.446 289.856 466.546 290.607C467.657 291.348 468.523 292.388 469.143 293.727H469.405C470.047 292.431 471.011 291.402 472.296 290.64C473.581 289.866 475.122 289.48 476.919 289.48C479.162 289.48 480.997 290.182 482.424 291.587C483.85 292.981 484.564 295.154 484.564 298.105V314.897H480.709V298.105C480.709 296.254 480.202 294.93 479.189 294.135C478.177 293.34 476.984 292.943 475.612 292.943C473.848 292.943 472.481 293.477 471.512 294.544C470.543 295.6 470.058 296.94 470.058 298.562V314.897H466.138V297.713C466.138 296.286 465.675 295.137 464.749 294.266C463.823 293.384 462.631 292.943 461.172 292.943C460.17 292.943 459.233 293.21 458.362 293.743C457.502 294.277 456.805 295.017 456.271 295.965C455.748 296.901 455.487 297.985 455.487 299.216V314.897H451.632ZM502.132 315.42C499.715 315.42 497.629 314.887 495.876 313.819C494.133 312.741 492.789 311.238 491.841 309.311C490.905 307.372 490.436 305.118 490.436 302.548C490.436 299.978 490.905 297.713 491.841 295.753C492.789 293.781 494.106 292.246 495.794 291.146C497.493 290.035 499.475 289.48 501.74 289.48C503.047 289.48 504.338 289.698 505.612 290.133C506.886 290.569 508.046 291.277 509.091 292.257C510.137 293.226 510.97 294.511 511.59 296.112C512.211 297.713 512.521 299.684 512.521 302.025V303.659H493.181V300.326H508.601C508.601 298.911 508.318 297.647 507.752 296.537C507.196 295.426 506.401 294.549 505.367 293.907C504.343 293.264 503.134 292.943 501.74 292.943C500.205 292.943 498.876 293.324 497.754 294.086C496.644 294.838 495.789 295.818 495.19 297.027C494.591 298.236 494.291 299.531 494.291 300.915V303.136C494.291 305.031 494.618 306.637 495.271 307.955C495.936 309.262 496.856 310.258 498.032 310.944C499.208 311.62 500.575 311.957 502.132 311.957C503.145 311.957 504.06 311.816 504.877 311.532C505.704 311.238 506.418 310.803 507.017 310.226C507.615 309.638 508.078 308.908 508.405 308.037L512.129 309.082C511.737 310.345 511.079 311.456 510.153 312.415C509.227 313.362 508.084 314.102 506.722 314.636C505.361 315.159 503.831 315.42 502.132 315.42ZM537.008 314.897L529.363 289.807H533.414L538.838 309.017H539.099L544.457 289.807H548.573L553.866 308.951H554.127L559.551 289.807H563.602L555.957 314.897H552.167L546.678 295.622H546.286L540.798 314.897H537.008ZM568.698 314.897V289.807H572.553V314.897H568.698ZM570.659 285.625C569.907 285.625 569.259 285.369 568.715 284.857C568.181 284.345 567.914 283.73 567.914 283.011C567.914 282.292 568.181 281.677 568.715 281.165C569.259 280.653 569.907 280.397 570.659 280.397C571.41 280.397 572.052 280.653 572.586 281.165C573.131 281.677 573.403 282.292 573.403 283.011C573.403 283.73 573.131 284.345 572.586 284.857C572.052 285.369 571.41 285.625 570.659 285.625ZM583.469 281.443V314.897H579.614V281.443H583.469ZM594.385 281.443V314.897H590.53V281.443H594.385ZM616.867 324.307C616.213 324.307 615.631 324.252 615.119 324.143C614.607 324.045 614.253 323.947 614.057 323.849L615.037 320.451C615.974 320.691 616.801 320.778 617.52 320.713C618.239 320.647 618.876 320.326 619.431 319.749C619.998 319.183 620.515 318.263 620.983 316.988L621.702 315.028L612.424 289.807H616.605L623.532 309.801H623.793L630.719 289.807H634.901L624.25 318.557C623.771 319.852 623.178 320.925 622.47 321.775C621.762 322.635 620.94 323.272 620.003 323.686C619.078 324.1 618.032 324.307 616.867 324.307ZM649.284 315.42C647.019 315.42 645.031 314.881 643.322 313.803C641.623 312.725 640.294 311.217 639.336 309.278C638.388 307.34 637.915 305.075 637.915 302.483C637.915 299.869 638.388 297.588 639.336 295.638C640.294 293.689 641.623 292.175 643.322 291.097C645.031 290.019 647.019 289.48 649.284 289.48C651.549 289.48 653.531 290.019 655.23 291.097C656.94 292.175 658.268 293.689 659.216 295.638C660.174 297.588 660.653 299.869 660.653 302.483C660.653 305.075 660.174 307.34 659.216 309.278C658.268 311.217 656.94 312.725 655.23 313.803C653.531 314.881 651.549 315.42 649.284 315.42ZM649.284 311.957C651.005 311.957 652.42 311.516 653.531 310.634C654.642 309.752 655.464 308.592 655.998 307.155C656.531 305.717 656.798 304.16 656.798 302.483C656.798 300.806 656.531 299.243 655.998 297.794C655.464 296.346 654.642 295.175 653.531 294.282C652.42 293.389 651.005 292.943 649.284 292.943C647.563 292.943 646.148 293.389 645.037 294.282C643.926 295.175 643.104 296.346 642.57 297.794C642.037 299.243 641.77 300.806 641.77 302.483C641.77 304.16 642.037 305.717 642.57 307.155C643.104 308.592 643.926 309.752 645.037 310.634C646.148 311.516 647.563 311.957 649.284 311.957ZM682.351 304.639V289.807H686.206V314.897H682.351V310.65H682.089C681.501 311.924 680.586 313.008 679.345 313.901C678.104 314.783 676.535 315.224 674.64 315.224C673.072 315.224 671.678 314.881 670.459 314.195C669.239 313.498 668.281 312.453 667.584 311.059C666.887 309.654 666.538 307.884 666.538 305.75V289.807H670.393V305.488C670.393 307.318 670.905 308.777 671.929 309.866C672.963 310.955 674.281 311.5 675.882 311.5C676.84 311.5 677.815 311.255 678.806 310.765C679.808 310.275 680.646 309.523 681.322 308.51C682.008 307.498 682.351 306.207 682.351 304.639ZM710.402 314.897L703.574 289.807H710.615L714.502 306.665H714.731L718.782 289.807H725.692L729.809 306.566H730.021L733.843 289.807H740.868L734.056 314.897H726.689L722.376 299.118H722.066L717.753 314.897H710.402ZM751.735 315.371C750.134 315.371 748.707 315.093 747.455 314.538C746.202 313.972 745.211 313.139 744.482 312.039C743.763 310.928 743.404 309.545 743.404 307.89C743.404 306.496 743.66 305.325 744.171 304.378C744.683 303.43 745.38 302.668 746.262 302.091C747.144 301.513 748.146 301.078 749.268 300.784C750.401 300.49 751.588 300.283 752.829 300.163C754.288 300.011 755.464 299.869 756.357 299.738C757.25 299.597 757.898 299.39 758.301 299.118C758.704 298.845 758.906 298.442 758.906 297.909V297.811C758.906 296.776 758.579 295.976 757.926 295.41C757.283 294.843 756.368 294.56 755.181 294.56C753.929 294.56 752.932 294.838 752.192 295.393C751.451 295.938 750.961 296.624 750.722 297.451L744.286 296.929C744.612 295.404 745.255 294.086 746.213 292.976C747.172 291.854 748.408 290.994 749.921 290.395C751.446 289.785 753.21 289.48 755.214 289.48C756.608 289.48 757.942 289.643 759.216 289.97C760.501 290.297 761.639 290.803 762.63 291.489C763.632 292.175 764.422 293.057 764.999 294.135C765.576 295.203 765.865 296.482 765.865 297.974V314.897H759.265V311.418H759.069C758.666 312.202 758.127 312.894 757.452 313.493C756.777 314.081 755.965 314.544 755.018 314.881C754.07 315.208 752.976 315.371 751.735 315.371ZM753.727 310.569C754.751 310.569 755.655 310.367 756.439 309.964C757.223 309.55 757.838 308.995 758.285 308.298C758.731 307.601 758.955 306.812 758.955 305.929V303.267C758.737 303.408 758.437 303.539 758.056 303.659C757.686 303.768 757.267 303.871 756.798 303.969C756.33 304.056 755.862 304.138 755.394 304.214C754.925 304.28 754.501 304.339 754.119 304.394C753.303 304.514 752.589 304.704 751.98 304.966C751.37 305.227 750.896 305.581 750.558 306.027C750.221 306.463 750.052 307.008 750.052 307.661C750.052 308.608 750.395 309.333 751.081 309.834C751.778 310.324 752.66 310.569 753.727 310.569ZM792.14 296.961L785.769 297.353C785.66 296.809 785.426 296.319 785.067 295.883C784.707 295.437 784.233 295.083 783.645 294.821C783.068 294.549 782.377 294.413 781.571 294.413C780.493 294.413 779.583 294.642 778.843 295.099C778.102 295.546 777.732 296.145 777.732 296.896C777.732 297.495 777.972 298.001 778.451 298.415C778.93 298.829 779.752 299.161 780.917 299.412L785.459 300.326C787.898 300.827 789.717 301.633 790.915 302.744C792.113 303.855 792.711 305.314 792.711 307.122C792.711 308.766 792.227 310.209 791.258 311.451C790.299 312.692 788.982 313.661 787.305 314.358C785.638 315.044 783.716 315.388 781.538 315.388C778.217 315.388 775.57 314.696 773.599 313.313C771.639 311.919 770.49 310.024 770.153 307.628L776.997 307.269C777.204 308.282 777.705 309.055 778.5 309.589C779.295 310.111 780.313 310.373 781.555 310.373C782.774 310.373 783.754 310.138 784.495 309.67C785.246 309.191 785.627 308.576 785.638 307.824C785.627 307.193 785.361 306.675 784.838 306.272C784.315 305.859 783.509 305.543 782.42 305.325L778.075 304.459C775.625 303.969 773.801 303.12 772.603 301.911C771.416 300.702 770.822 299.161 770.822 297.288C770.822 295.676 771.258 294.288 772.129 293.123C773.011 291.957 774.247 291.059 775.837 290.427C777.438 289.796 779.311 289.48 781.456 289.48C784.626 289.48 787.119 290.15 788.938 291.489C790.768 292.829 791.835 294.653 792.14 296.961ZM810.439 289.807V295.034H795.329V289.807H810.439ZM798.76 283.795H805.718V307.187C805.718 307.83 805.816 308.331 806.012 308.69C806.208 309.039 806.481 309.284 806.829 309.425C807.189 309.567 807.602 309.638 808.071 309.638C808.397 309.638 808.724 309.61 809.051 309.556C809.377 309.491 809.628 309.441 809.802 309.409L810.897 314.587C810.548 314.696 810.058 314.821 809.426 314.963C808.795 315.115 808.027 315.208 807.123 315.241C805.446 315.306 803.976 315.083 802.713 314.571C801.46 314.059 800.486 313.264 799.789 312.186C799.092 311.108 798.749 309.746 798.76 308.102V283.795ZM826.137 315.388C823.556 315.388 821.335 314.865 819.473 313.819C817.621 312.763 816.195 311.271 815.193 309.343C814.191 307.405 813.69 305.113 813.69 302.466C813.69 299.885 814.191 297.62 815.193 295.671C816.195 293.722 817.605 292.202 819.424 291.113C821.253 290.024 823.399 289.48 825.86 289.48C827.515 289.48 829.056 289.747 830.483 290.28C831.92 290.803 833.172 291.593 834.24 292.649C835.318 293.705 836.156 295.034 836.755 296.635C837.354 298.225 837.654 300.087 837.654 302.221V304.133H816.467V299.82H831.103C831.103 298.818 830.886 297.931 830.45 297.157C830.014 296.384 829.41 295.78 828.637 295.344C827.874 294.898 826.987 294.674 825.974 294.674C824.918 294.674 823.981 294.919 823.164 295.41C822.359 295.889 821.727 296.537 821.27 297.353C820.812 298.159 820.578 299.058 820.567 300.049V304.149C820.567 305.39 820.796 306.463 821.253 307.367C821.721 308.271 822.38 308.968 823.23 309.458C824.079 309.948 825.087 310.193 826.252 310.193C827.025 310.193 827.733 310.084 828.375 309.866C829.018 309.648 829.568 309.322 830.025 308.886C830.483 308.45 830.831 307.917 831.071 307.285L837.507 307.71C837.18 309.256 836.51 310.607 835.498 311.761C834.496 312.905 833.2 313.798 831.61 314.44C830.031 315.072 828.207 315.388 826.137 315.388ZM866.796 289.807V293.074H853.793V289.807H866.796ZM857.583 283.795H861.438V307.71C861.438 308.799 861.596 309.616 861.912 310.16C862.238 310.694 862.652 311.053 863.153 311.238C863.665 311.413 864.204 311.5 864.77 311.5C865.195 311.5 865.543 311.478 865.816 311.434C866.088 311.38 866.306 311.336 866.469 311.304L867.253 314.767C866.992 314.865 866.627 314.963 866.159 315.061C865.69 315.17 865.097 315.224 864.378 315.224C863.289 315.224 862.222 314.99 861.176 314.522C860.142 314.053 859.282 313.34 858.596 312.382C857.92 311.424 857.583 310.215 857.583 308.755V283.795ZM882.518 315.42C880.253 315.42 878.266 314.881 876.556 313.803C874.857 312.725 873.529 311.217 872.57 309.278C871.623 307.34 871.149 305.075 871.149 302.483C871.149 299.869 871.623 297.588 872.57 295.638C873.529 293.689 874.857 292.175 876.556 291.097C878.266 290.019 880.253 289.48 882.518 289.48C884.784 289.48 886.766 290.019 888.464 291.097C890.174 292.175 891.503 293.689 892.45 295.638C893.409 297.588 893.888 299.869 893.888 302.483C893.888 305.075 893.409 307.34 892.45 309.278C891.503 311.217 890.174 312.725 888.464 313.803C886.766 314.881 884.784 315.42 882.518 315.42ZM882.518 311.957C884.239 311.957 885.655 311.516 886.766 310.634C887.876 309.752 888.699 308.592 889.232 307.155C889.766 305.717 890.033 304.16 890.033 302.483C890.033 300.806 889.766 299.243 889.232 297.794C888.699 296.346 887.876 295.175 886.766 294.282C885.655 293.389 884.239 292.943 882.518 292.943C880.798 292.943 879.382 293.389 878.271 294.282C877.161 295.175 876.338 296.346 875.805 297.794C875.271 299.243 875.004 300.806 875.004 302.483C875.004 304.16 875.271 305.717 875.805 307.155C876.338 308.592 877.161 309.752 878.271 310.634C879.382 311.516 880.798 311.957 882.518 311.957ZM909.247 315.42C907.156 315.42 905.31 314.892 903.709 313.836C902.108 312.768 900.856 311.266 899.952 309.327C899.048 307.378 898.596 305.075 898.596 302.417C898.596 299.782 899.048 297.495 899.952 295.557C900.856 293.618 902.114 292.121 903.726 291.064C905.337 290.008 907.2 289.48 909.312 289.48C910.946 289.48 912.236 289.752 913.184 290.297C914.142 290.83 914.872 291.44 915.373 292.126C915.885 292.801 916.282 293.357 916.565 293.792H916.892V281.443H920.747V314.897H917.023V311.042H916.565C916.282 311.5 915.879 312.077 915.356 312.774C914.834 313.46 914.088 314.075 913.118 314.62C912.149 315.153 910.859 315.42 909.247 315.42ZM909.77 311.957C911.316 311.957 912.623 311.554 913.69 310.748C914.757 309.932 915.569 308.804 916.124 307.367C916.68 305.919 916.957 304.247 916.957 302.352C916.957 300.479 916.685 298.84 916.14 297.435C915.596 296.019 914.79 294.919 913.723 294.135C912.656 293.34 911.338 292.943 909.77 292.943C908.136 292.943 906.775 293.362 905.686 294.201C904.608 295.028 903.796 296.156 903.252 297.582C902.718 298.998 902.452 300.588 902.452 302.352C902.452 304.138 902.724 305.761 903.268 307.22C903.824 308.668 904.64 309.823 905.719 310.683C906.808 311.532 908.158 311.957 909.77 311.957ZM935.726 315.486C934.136 315.486 932.693 315.186 931.398 314.587C930.102 313.977 929.073 313.101 928.31 311.957C927.548 310.803 927.167 309.409 927.167 307.775C927.167 306.338 927.45 305.173 928.016 304.28C928.582 303.376 929.339 302.668 930.287 302.156C931.234 301.644 932.28 301.263 933.423 301.013C934.577 300.751 935.737 300.544 936.903 300.392C938.427 300.196 939.663 300.049 940.611 299.951C941.569 299.842 942.266 299.662 942.702 299.412C943.148 299.161 943.371 298.726 943.371 298.105V297.974C943.371 296.362 942.93 295.11 942.048 294.217C941.177 293.324 939.854 292.878 938.079 292.878C936.238 292.878 934.795 293.281 933.75 294.086C932.704 294.892 931.969 295.753 931.545 296.667L927.885 295.361C928.539 293.836 929.41 292.649 930.499 291.799C931.599 290.939 932.797 290.34 934.093 290.003C935.4 289.654 936.685 289.48 937.948 289.48C938.754 289.48 939.68 289.578 940.725 289.774C941.781 289.959 942.8 290.346 943.78 290.934C944.771 291.522 945.593 292.409 946.246 293.596C946.9 294.783 947.226 296.373 947.226 298.366V314.897H943.371V311.5H943.175C942.914 312.044 942.478 312.627 941.868 313.248C941.259 313.868 940.447 314.397 939.434 314.832C938.422 315.268 937.186 315.486 935.726 315.486ZM936.314 312.022C937.839 312.022 939.124 311.723 940.17 311.124C941.226 310.525 942.021 309.752 942.555 308.804C943.099 307.857 943.371 306.861 943.371 305.815V302.287C943.208 302.483 942.849 302.662 942.293 302.826C941.749 302.978 941.117 303.114 940.398 303.234C939.69 303.343 938.999 303.441 938.324 303.528C937.659 303.604 937.12 303.67 936.706 303.724C935.705 303.855 934.768 304.067 933.897 304.361C933.037 304.644 932.34 305.075 931.806 305.652C931.283 306.218 931.022 306.991 931.022 307.971C931.022 309.311 931.517 310.324 932.508 311.01C933.51 311.685 934.779 312.022 936.314 312.022ZM955.847 324.307C955.194 324.307 954.611 324.252 954.099 324.143C953.588 324.045 953.234 323.947 953.038 323.849L954.018 320.451C954.954 320.691 955.782 320.778 956.501 320.713C957.219 320.647 957.857 320.326 958.412 319.749C958.978 319.183 959.496 318.263 959.964 316.988L960.683 315.028L951.404 289.807H955.586L962.512 309.801H962.773L969.7 289.807H973.881L963.231 318.557C962.752 319.852 962.158 320.925 961.45 321.775C960.742 322.635 959.92 323.272 958.984 323.686C958.058 324.1 957.013 324.307 955.847 324.307ZM984.001 305.488V305.292C984.023 303.212 984.241 301.557 984.654 300.326C985.068 299.096 985.656 298.099 986.419 297.337C987.181 296.575 988.096 295.872 989.163 295.23C989.806 294.838 990.383 294.375 990.895 293.841C991.406 293.297 991.809 292.671 992.103 291.963C992.408 291.255 992.561 290.471 992.561 289.611C992.561 288.543 992.31 287.618 991.809 286.834C991.308 286.049 990.639 285.445 989.8 285.02C988.962 284.596 988.03 284.383 987.007 284.383C986.114 284.383 985.253 284.568 984.426 284.939C983.598 285.309 982.907 285.892 982.351 286.687C981.796 287.482 981.475 288.522 981.387 289.807H977.271C977.358 287.955 977.837 286.371 978.708 285.053C979.591 283.735 980.75 282.728 982.188 282.031C983.636 281.334 985.243 280.986 987.007 280.986C988.923 280.986 990.59 281.367 992.005 282.129C993.432 282.891 994.532 283.937 995.305 285.265C996.089 286.594 996.481 288.108 996.481 289.807C996.481 291.004 996.296 292.088 995.926 293.057C995.566 294.026 995.044 294.892 994.358 295.655C993.682 296.417 992.866 297.092 991.907 297.68C990.949 298.279 990.181 298.911 989.604 299.575C989.027 300.228 988.608 301.007 988.346 301.911C988.085 302.815 987.943 303.942 987.922 305.292V305.488H984.001ZM986.092 315.159C985.286 315.159 984.595 314.87 984.017 314.293C983.44 313.716 983.152 313.024 983.152 312.218C983.152 311.413 983.44 310.721 984.017 310.144C984.595 309.567 985.286 309.278 986.092 309.278C986.898 309.278 987.589 309.567 988.167 310.144C988.744 310.721 989.032 311.413 989.032 312.218C989.032 312.752 988.896 313.242 988.624 313.689C988.363 314.135 988.009 314.495 987.562 314.767C987.127 315.028 986.636 315.159 986.092 315.159Z" fill="white"/>
</svg>
